<?xml version="1.0" standalone="no"?>
<!DOCTYPE svg PUBLIC "-//W3C//DTD SVG 20010904//EN"
 "http://www.w3.org/TR/2001/REC-SVG-20010904/DTD/svg10.dtd">
<svg version="1.0" xmlns="http://www.w3.org/2000/svg"
 width="1200.000000pt" height="1200.000000pt" viewBox="0 0 1200.000000 1200.000000"
 preserveAspectRatio="xMidYMid meet">
<metadata>
Created by potrace 1.16, written by Peter Selinger 2001-2019
</metadata>
<g transform="translate(0.000000,1200.000000) scale(0.100000,-0.100000)"
fill="#000000" stroke="none">
<path d="M5029 7682 c-26 -24 -32 -36 -32 -72 0 -36 6 -48 32 -72 l31 -28 0
-109 0 -109 120 -102 120 -102 0 -224 0 -224 -55 0 -54 0 -10 38 c-5 20 -17
66 -26 101 l-16 64 25 26 c67 70 24 171 -74 171 -36 0 -86 -41 -93 -77 -7 -37
15 -87 46 -108 20 -13 30 -36 52 -128 38 -157 39 -157 130 -157 l75 0 0 -118
0 -119 -112 -32 c-62 -18 -116 -38 -120 -44 -4 -7 -8 -89 -8 -182 l0 -170 -29
-27 c-37 -35 -45 -69 -27 -112 38 -92 173 -78 192 19 7 38 -16 89 -46 105 -19
10 -20 21 -20 165 l0 154 73 21 c39 12 78 23 85 25 9 3 12 -49 12 -241 0 -149
4 -253 10 -265 27 -49 25 -49 690 -49 665 0 663 0 690 49 6 12 10 136 10 330
0 171 2 311 6 311 3 0 41 -30 84 -67 l79 -68 1 -177 c0 -167 -1 -178 -20 -188
-25 -13 -50 -61 -50 -96 0 -35 59 -94 94 -94 35 0 83 25 96 49 5 11 10 37 10
58 0 31 -7 46 -30 68 l-30 29 0 187 c0 216 14 184 -137 314 l-103 87 0 224 0
224 54 0 54 0 21 -85 21 -84 -25 -37 c-35 -52 -33 -88 9 -130 38 -38 70 -43
116 -19 37 19 50 43 50 91 0 27 -7 46 -27 66 -15 15 -32 28 -39 28 -6 0 -23
46 -38 107 -15 59 -32 113 -38 120 -7 8 -37 13 -85 13 l-74 0 3 87 3 87 110
49 c60 26 113 53 117 60 4 7 8 58 8 114 0 99 1 102 30 131 82 83 -8 209 -115
160 -29 -13 -55 -55 -55 -88 0 -32 27 -78 50 -85 18 -6 20 -15 20 -99 l0 -93
-75 -32 c-41 -17 -79 -31 -85 -31 -6 0 -10 51 -10 141 l0 141 -29 29 -29 29
-642 0 -642 0 -29 -29 -29 -29 0 -181 c0 -100 -3 -181 -6 -181 -3 0 -41 30
-85 67 l-79 68 0 91 c0 92 0 92 35 127 47 47 47 87 1 133 -44 44 -92 47 -137
6z m1599 -894 l2 -748 -635 0 -635 0 0 731 c0 486 3 737 10 750 11 19 26 19
633 17 l622 -3 3 -747z m2 -912 c0 -76 -3 -95 -16 -100 -9 -3 -290 -6 -625 -6
l-609 0 -10 26 c-6 14 -10 59 -10 100 l0 74 635 0 635 0 0 -94z"/>
<path d="M5890 7295 c-107 -31 -204 -114 -257 -223 -22 -45 -28 -73 -31 -146
-5 -106 13 -164 80 -267 65 -101 99 -182 109 -260 5 -40 14 -78 20 -85 16 -19
362 -20 376 -1 6 6 15 46 22 89 14 97 40 164 92 234 22 31 53 81 67 112 24 50
27 70 27 157 0 93 -2 105 -34 173 -63 135 -190 220 -339 228 -50 3 -96 -1
-132 -11z m249 -89 c117 -60 183 -158 189 -281 5 -89 -20 -157 -89 -252 -53
-72 -85 -147 -95 -216 -12 -90 -9 -87 -64 -87 l-50 0 0 113 0 113 -51 49 c-43
42 -79 97 -79 120 0 11 40 4 69 -12 30 -17 32 -17 62 0 39 22 73 23 65 1 -3
-9 -6 -19 -6 -24 0 -5 -11 -22 -25 -38 l-24 -29 24 -23 25 -23 24 23 c26 23
56 97 56 135 0 40 -35 65 -93 65 -29 0 -58 -5 -65 -12 -9 -9 -15 -9 -24 0 -21
21 -115 15 -138 -8 -42 -42 -14 -134 64 -210 l46 -44 0 -98 0 -98 -45 0 c-38
0 -45 3 -49 23 -30 143 -49 195 -102 269 -74 104 -89 145 -89 243 0 102 18
153 76 219 98 112 260 146 388 82z"/>
<path d="M5860 6235 l0 -35 140 0 140 0 0 35 0 35 -140 0 -140 0 0 -35z"/>
<path d="M5900 5870 l0 -40 100 0 100 0 0 40 0 40 -100 0 -100 0 0 -40z"/>
<path d="M7300 5810 l0 -90 1330 0 1330 0 0 90 0 90 -1330 0 -1330 0 0 -90z"/>
<path d="M2040 5790 l0 -90 1330 0 1330 0 0 90 0 90 -1330 0 -1330 0 0 -90z"/>
<path d="M7945 5257 c-159 -42 -258 -152 -259 -291 -2 -145 66 -221 280 -311
180 -77 202 -98 148 -152 -23 -23 -31 -25 -97 -21 -72 4 -127 23 -193 67 l-30
21 -72 -87 -72 -87 23 -24 c54 -57 237 -122 347 -122 69 0 177 27 225 55 24
13 61 45 83 70 96 109 97 282 4 378 -44 46 -70 60 -221 121 -62 25 -124 52
-137 61 -33 22 -33 69 1 91 39 25 146 16 212 -19 29 -15 55 -27 57 -27 8 0
126 148 126 158 0 17 -103 81 -165 102 -76 26 -194 34 -260 17z"/>
<path d="M2800 5246 c0 -3 -65 -219 -145 -480 -80 -262 -145 -481 -145 -486 0
-6 50 -10 129 -10 145 0 131 -8 151 85 6 28 15 67 21 88 l10 38 136 -3 136 -3
18 -80 c11 -44 21 -90 24 -102 5 -22 9 -23 140 -23 90 0 135 4 135 11 0 6 -63
218 -140 472 -78 254 -143 470 -146 480 -5 15 -22 17 -165 17 -87 0 -159 -2
-159 -4z m200 -375 c22 -96 40 -178 40 -182 0 -5 -38 -9 -85 -9 -54 0 -85 4
-85 11 0 6 11 54 24 107 13 53 32 132 41 175 9 43 18 77 20 75 2 -2 22 -82 45
-177z"/>
<path d="M3510 4760 l0 -490 126 0 127 0 -6 223 c-4 122 -13 268 -20 325 -8
56 -10 99 -6 95 4 -4 26 -53 49 -108 23 -55 91 -198 151 -317 l109 -218 135 0
135 0 0 490 0 490 -125 0 -125 0 0 -203 c0 -118 6 -252 15 -322 8 -65 13 -120
11 -122 -2 -2 -18 32 -36 74 -18 43 -87 189 -153 326 l-121 247 -133 0 -133 0
0 -490z"/>
<path d="M4450 5140 l0 -110 130 0 130 0 0 -380 0 -380 130 0 130 0 0 380 0
380 130 0 130 0 0 110 0 110 -390 0 -390 0 0 -110z"/>
<path d="M5370 4760 l0 -490 130 0 130 0 0 166 0 165 51 -3 51 -3 85 -162 85
-163 145 0 145 0 -38 68 c-21 37 -68 121 -105 187 l-68 120 49 43 c29 25 60
66 77 99 24 50 28 69 27 148 0 103 -19 159 -74 213 -82 82 -170 102 -467 102
l-223 0 0 -490z m460 265 c38 -20 50 -43 50 -99 0 -85 -78 -133 -202 -124
l-43 3 -3 118 -3 117 86 0 c57 0 96 -5 115 -15z"/>
<path d="M6320 4760 l0 -490 130 0 130 0 0 490 0 490 -130 0 -130 0 0 -490z"/>
<path d="M6800 4760 l0 -490 130 0 130 0 0 122 0 123 43 62 c23 34 44 63 47
63 3 0 52 -82 109 -181 57 -99 109 -183 115 -185 7 -3 71 -3 144 -2 l132 3
-170 283 c-93 156 -170 288 -170 294 0 5 60 92 133 191 73 100 137 188 141
195 6 9 -24 12 -133 12 l-140 0 -123 -181 -123 -180 -3 180 -2 181 -130 0
-130 0 0 -490z"/>
<path d="M8560 4760 l0 -490 130 0 130 0 0 195 0 195 145 0 145 0 0 -195 0
-195 130 0 130 0 0 490 0 490 -130 0 -130 0 0 -180 0 -180 -145 0 -145 0 0
180 0 180 -130 0 -130 0 0 -490z"/>
</g>
</svg>
